<?xml version="1.0"?>
<VTKFile type="UnstructuredGrid" version="0.1" byte_order="LittleEndian" compressor="vtkZLibDataCompressor">
<UnstructuredGrid>
<Piece NumberOfPoints="84" NumberOfCells="120">
<Points>
<DataArray type="Float64" NumberOfComponents="3" format="binary">
AQAAAACAAADgBwAAcgEAAA==eJx9kyFLBFEUhdfgCiari0VsD1ZWBzYMqIODwzI6OIJmZaNBEAWT+gsWwyIYBdM2iyCy4CsqIhiMRrGJoEVBDKYb7j3vOG0+Hh+Xe8+pVP7/Ou8Xp9+357PyX0/H3l6aw3P2nXD7Xns8eCyXb/V1ZHvH3cP7MK+ReWowj+Z2nhr429NrDdebAL9w69fcAw/P78j8jszvyPwO/L+9z6ei3QC/cOvX3AMP7yci+4nIfiKynwj8d1eXnepHE/zCrV9zDzy8/5jsPyb7j8n+Y/B3Hw5b1/sz4Bdu/Zp74OH7JuS+CblvQu6bgH9y62ygPzgPfuHWr7kHHs5PSvKTkvykJD8p+I+/qusnSwvgF279mnvg4XxmJJ8ZyWdG8pmB/+dgs7/bbYFfuPVr7oGH85+T/Ock/znJfw7+jaHH0ZXnRfALt37NPfBwvwrSr4L0qyD9KsB/czS1Vx9fBr9w69fcAw/3tyT9LUl/S9LfEvx/TcY9WA==
</DataArray>
</Points>
<Cells>
<DataArray type="Int32" Name="connectivity" format="ascii">
 0 1 2 1 2 3 1 3 4 2 3 8 3 4 5 3 5 9 3 8 9 4 5 6 5 6 7 5 7 10 5 9 10 7 10 11 8 9 12 9 10 13 9 12 13 10 11 14 10 13 14 11 14 15 12 13 16 13 14 17 13 16 17 14 15 18 14 17 18 15 18 19 16 17 20 17 18 21 17 20 21 18 19 22 18 21 22 19 22 23 20 21 24 21 22 25 21 24 25 22 23 26 22 25 26 23 26 27 24 25 28 25 26 29 25 28 29 26 27 30 26 29 30 27 30 31 28 29 32 29 30 33 29 32 33 30 31 34 30 33 34 31 34 35 32 33 36 33 34 37 33 36 37 34 35 38 34 37 38 35 38 39 36 37 40 37 38 41 37 40 41 38 39 42 38 41 42 39 42 43 40 41 44 41 42 45 41 44 45 42 43 46 42 45 46 43 46 47 44 45 48 45 46 49 45 48 49 46 47 50 46 49 50 47 50 51 48 49 52 49 50 53 49 52 53 50 51 54 50 53 54 51 54 55 52 53 56 53 54 57 53 56 57 54 55 58 54 57 58 55 58 59 56 57 60 57 58 61 57 60 61 58 59 62 58 61 62 59 62 63 60 61 64 61 62 65 61 64 65 62 63 66 62 65 66 63 66 67 64 65 68 65 66 69 65 68 69 66 67 70 66 69 70 67 70 71 68 69 72 69 70 73 69 72 73 70 71 74 70 73 74 71 74 75 72 73 76 73 74 77 73 76 77 74 75 78 74 77 78 75 78 79 76 77 80 77 78 81 77 80 81 78 79 82 78 81 82 79 82 83
</DataArray>
<DataArray type="Int32" Name="offsets" format="ascii">
 3 6 9 12 15 18 21 24 27 30 33 36 39 42 45 48 51 54 57 60 63 66 69 72 75 78 81 84 87 90 93 96 99 102 105 108 111 114 117 120 123 126 129 132 135 138 141 144 147 150 153 156 159 162 165 168 171 174 177 180 183 186 189 192 195 198 201 204 207 210 213 216 219 222 225 228 231 234 237 240 243 246 249 252 255 258 261 264 267 270 273 276 279 282 285 288 291 294 297 300 303 306 309 312 315 318 321 324 327 330 333 336 339 342 345 348 351 354 357 360
</DataArray>
<DataArray type="UInt8" Name="types" format="ascii">
 5 5 5 5 5 5 5 5 5 5 5 5 5 5 5 5 5 5 5 5 5 5 5 5 5 5 5 5 5 5 5 5 5 5 5 5 5 5 5 5 5 5 5 5 5 5 5 5 5 5 5 5 5 5 5 5 5 5 5 5 5 5 5 5 5 5 5 5 5 5 5 5 5 5 5 5 5 5 5 5 5 5 5 5 5 5 5 5 5 5 5 5 5 5 5 5 5 5 5 5 5 5 5 5 5 5 5 5 5 5 5 5 5 5 5 5 5 5 5 5
</DataArray>
</Cells>
<PointData>
<DataArray type="Float64" Name="AtContactNode" format="binary">
AQAAAACAAACgAgAAHAAAAA==eJxjYACBD/YMKACdTwgQUj8qPypPnjwAqlIY3A==
</DataArray>
<DataArray type="Float64" Name="ContactNSurfaceNormal_x" format="binary">
AQAAAACAAACgAgAADwAAAA==eJxjYBgFo2DwAgACoAAB
</DataArray>
<DataArray type="Float64" Name="ContactNSurfaceNormal_y" format="binary">
AQAAAACAAACgAgAAHAAAAA==eJxjYACBD/sZUAA6nxAgpH5UflSePHkA2aQjXA==
</DataArray>
<DataArray type="Float64" Name="ContactSurfaceArea" format="binary">
AQAAAACAAACgAgAAQgAAAA==eJzTdZZ5/cjslx0DFOiC+Vz2DEQCPQLqCZmnQ0CekPmE9BOSN6BQvwqF5lsQkNegUJ6Q/ZTKU8d9iPSHDgAKBz2V
</DataArray>
<DataArray type="Float64" Name="NSurfaceNormal_x" format="binary">
AQAAAACAAACgAgAADwAAAA==eJxjYBgFo2DwAgACoAAB
</DataArray>
<DataArray type="Float64" Name="NSurfaceNormal_y" format="binary">
AQAAAACAAACgAgAAFgAAAA==eJxjYKAEfNg/Kj8qTzt5BgYAMwUf/g==
</DataArray>
<DataArray type="Float64" Name="NodeVolume" format="binary">
AQAAAACAAACgAgAAdwAAAA==eJytjkEKgDAMBF+Wn/mjnlRUMK3tSYU8QDz5FUHWSorQgp6GZLO7YbftR2WIL3JCIYvZqtnE/fu9kMvot39UlHjHqpeT3Cc/58/pk6KQB0Ohv1YUasC2MH9WFFrAFftOUagHh0I91/9V/+c/E3s8GLA/AfL0zqM=
</DataArray>
<DataArray type="Float64" Name="Potential" format="binary">
AQAAAACAAACgAgAAMQEAAA==eJxjYACBD/sr5d0OHP3/fj8DlL/T95ru/APv93eZl+XPAIpP/GB7xKzx/f5b4esYWoH8n09Paux3RKi/Y6FcMPv0+/3hkf7/zKe/3/9gTd/Ja0kI+QdmVcnrgPK1Go9OxADlNVdxGHEnI+Q/TLZtBMlH6NcxxQLlDy8/0owsf+NbNlg+89N1sLzsd+cWZHkJ+xywvFndDbB8yl4XFPkOqLxAPUR+xj5U+U6ovCBUftYgkyfkfjGovAnU/wlo/peEht/3D5Dw4/+KGn5ckpDwb3esBcuXhR1GCf+IaG1w/D1q9QTHn6CsgSGyPIfFK1tQ/KdfuzAHFP/1tzfZIcd/zuKL3xuB6ek9g2PQn4b3+z0iX+elI6Wfm+eyl4LS3+ep2+1B6U3/6s/jLUAaALWzRgI=
</DataArray>
<DataArray type="Float64" Name="Potential_prev" format="binary">
AQAAAACAAACgAgAAhwEAAA==eJxjYACBB/s1zl3+O/X//f0MUL5d9MTS5T33909YndzqDBS3/5TL7yR5f/+mu/fVFYD8+PKdbw4tvQdXz+E2u85r+v39/29pCU3Tu7/fbLnOxcdHEfLv4y49jQHK7zBtObsTKP+S8eYOsWMIeX3e3UyxQPl53JWsu4Dy3HtsOMSR5DPOPwfLpy4+D5Z3btiOIs9xEiIvPgkibxKNKv+iBiJ/4ec5sPyOsm0o8tEGEPltCRB5wYlbUeTPPX4Glp99/CxYPnP1FhR5h+kQ+QY9iPzBo5tR5Dd7QeTTpp4By0s82IQir/rvKVje+89psHzBr40o8tM3QuT1kyHyx0RQ5WelQORtTp4Cy7/W3YAin3zhCVi+ZOlJsPy05nUo8ocatoHldzAVgOX7QvVR5BUrDMDxxzrR6wwo/mojpLcjx59NlYoUKP4fO6j4TwXKGy9L2/0IKf7nWzdx5gLTk31NhvZZifv7lX+9qhBGSj9T1eVPgNLfm7hnqqD0Jn+2bJs8kAYAu3o5KA==
</DataArray>
<DataArray type="Float64" Name="SurfaceArea" format="binary">
AQAAAACAAACgAgAAQwAAAA==eJxjYCAP6DrLvH5k9ssOl7weWJ7LHr9+3PI6BOQJmU9IPyF5Awr1q1BovgUBeQ0K5QnZT6k8IfsVCKQfGAAA3os32g==
</DataArray>
<DataArray type="Float64" Name="bottom_gate_potential_bc" format="binary">
AQAAAACAAACgAgAADwAAAA==eJxjYBgFo2DwAgACoAAB
</DataArray>
<DataArray type="Float64" Name="bottom_gate_potential_bc:Potential" format="binary">
AQAAAACAAACgAgAAHAAAAA==eJxjYACBD/YMKACdTwgQUj8qPypPnjwAqlIY3A==
</DataArray>
<DataArray type="Float64" Name="coordinate_index" format="binary">
AQAAAACAAACgAgAArQAAAA==eJw1zl1KQkEYx+F3KV6ERLepV30MFhioIH0Sap7U1GXMUlzKLOUsJeo8MzcP/x+8MBF/7yL9E31ec8BLDnnFEW94yzved+ax/WAzHjnRGU92darPbMaci87EzFL7s87CeNFfdcabO5Z3/UNnZnzqzCy1L3UWxkpf64wvdywbvensMTG+dSY2tW91Nsy173Rmnmvf6zyz1P6js7Ct/aCzZRx1toyTf5/SL4T8TA4=
</DataArray>
<DataArray type="Float64" Name="node_index" format="binary">
AQAAAACAAACgAgAAoAAAAA==eJxNyT1OQlEUhdFdUlpYUFgYYwghxigooqg8FfEHVFAGdId2h8QQKN4qPM06X3by/3YzT9PS4QEP2eURj3nCU/bY54BnPOcFLznkiFe85pg3nPCWd5zyng985IxNa2GeNPOsmRfNzDXzqpmFZt40866ZD818amapmZVmvjTzrZkfzaxbGxZWZmNnYWV+7SyszJ+dhZXZ2llYt80e37I5mA==
</DataArray>
<DataArray type="Float64" Name="x" format="binary">
AQAAAACAAACgAgAAnQAAAA==eJxjYEAFus4yrx+ZcdnDaHRx7OqkcNJJRqEGWiuVcdIQdVo46T8rP17yTTLASUPMMcZJH9+1o5ftgxlOGmKPFU568ul6j/21tjhpiDsccNJ6eYsZ97A64aQh7nTGSU/9xhY/w8cVJw3xhxtO+ldd1p6SyR44aYg/vXDSCeznJANveeOkIeHgi5M+2m9Yrqvoj5OGhFMAThoAFi0PVA==
</DataArray>
<DataArray type="Float64" Name="y" format="binary">
AQAAAACAAACgAgAALQAAAA==eJxjYICA3rdbF3w/tsGOAY0PoQ/A6ZAnAoXFWifhNC71o/Kj8tSQBwDIWC4F
</DataArray>
<DataArray type="Float64" Name="z" format="binary">
AQAAAACAAACgAgAADwAAAA==eJxjYBgFo2DwAgACoAAB
</DataArray>
<DataArray type="Float64" Name="EdgeCouple" format="binary">
AQAAAACAAACgAgAAegAAAA==eJyb+UlxhdTeV3azoPRMKJ3mc1Aq/fJHuDiMD6EfwtXB5NOh8ulo+tDNg9Ew8RlQOhUqDqNnEGk+If2E5OdA6QyoOIyeQ6T+CVA6ASoOoycQaf4SKJ0LFYfRMPEpUDoZKg6jpxApT8h+SuUpdV8GND2h2wejATsSXKE=
</DataArray>
<DataArray type="Float64" Name="EdgeInverseLength" format="binary">
AQAAAACAAACgAgAAWQAAAA==eJxjYGBgOKAg7/hlrh/DHig9R0fA8b36vtClGqKOn6HiMD6yOEjdZzT16PLo5pEqT6n5hPRTy/0fSDT/Ew75d1Qyn17ylLoPxoelP1h6+w8E+4E0AGCKB4g=
</DataArray>
<DataArray type="Float64" Name="EdgeLength" format="binary">
AQAAAACAAACgAgAAjAAAAA==eJyb+UlxhdTeX3bx4cYFx4D0goD5zHynme2lQxUSZZYz2sPEYXwYDVMHo2Wg4jI45HHpn49Dfj4B8xcSMH8eVHweAfsXQWlZqDiMXkSk+bOgtChUHEbPQLMf3fxlUPFVUFoZKq6MJg/TLwEVh9Gz0OxHl59HpP8olafUfTDzkqDpDEbPgaZLAH5XzOM=
</DataArray>
<DataArray type="Float64" Name="EdgeNodeVolume" format="binary">
AQAAAACAAACgAgAAkAAAAA==eJzbvff6zfs1s213o9GXLvc/sw9eZLsHyr8M5UPoSXBxdPUwdXuh4ruw6keYC5O/CBWHmQMzF7v9CPN3oum/SKL5+6D0Faj4VSh9gEjzN0Lp01DxM1B6M5HmH4PSN6Hit6D0Caj4Vih9Dip+HkrvgIpvg9Ln0eS3E2k/pfKUuu8KND3B7NkPpWHmAwCpV6Fp
</DataArray>
<DataArray type="Float64" Name="ElectricField" format="binary">
AQAAAACAAACgAgAA2QEAAA==eJyrkxcSKD+mfcDMR+qhSoLngfD6iBNcFvMO+LBEv5/6avGBVbc4WreYuR8wXjl5kcmdxQdOWMVt0Ej0PmCafbY+6uO8A96Gu7VfJMw4ILmgTCLdfMGBv8IahsdUFhxY3H/zUJPGjAMizbNi1xfNOGD7V/B/qs+CA9FsPls8gbRTQN7GSKD4/kmKeeeB9NGjykZdQHHbs7psIPqjItPLc0Bx3+yVC0DyHJHfs0Di4k83gekPCrfmg8RTDH+A5Ve98M8Gif+thdAJ776BxcPXQOT7igLA4m8LIXThKoj4e6h8UTFUHEq/gYp/hNIlUPFiKP2RQvlPUHEYXQoVh9E/oeLZayH0T6j42hII3bgJIn70MYQOvQQRL3cKBNP6sn/A4skbpBeC6Mb0XrD4xeyrYFput+5ikPjrRcXbQfRZ9fxJYPvnLj8Aohf83MR9ESju8HQS7z0gPX3G07TFQPHaV39eHwDSf24ture9eMaBlfuv3f1XPeOAYNviM5OjFxywfnTV0j53wYF3z177zWeaeSBi3+uAxcfmHmg8r6LUumHxgVuL845axS8+kH9b22Ml0+wDLGe2L7Y3dHUoWZLa5/880mF1zC6mAON0hwkVRpWXc3McAKhpeGs=
</DataArray>
<DataArray type="Float64" Name="ElectricField:Potential@n0" format="binary">
AQAAAACAAACgAgAAWQAAAA==eJxjYGBgOKAg7/hlrh/DHig9R0fA8b36vtClGqKOn6HiMD6yOEjdZzT16PLo5pEqT6n5hPRTy/0fSDT/Ew75d1Qyn17ylLoPxoelP1h6+w8E+4E0AGCKB4g=
</DataArray>
<DataArray type="Float64" Name="ElectricField:Potential@n1" format="binary">
AQAAAACAAACgAgAAWQAAAA==eJxjYGBgOKAgf/DLXD+GPVB6jo7Awffq+0KXaoge/AwVh/GRxUHqPqOpR5dHN49UeUrNJ6SfWu7/QKL5n3DIv6OS+fSSp9R9MD4s/cHS238g2A+kAQXDMYg=
</DataArray>
<DataArray type="Float64" Name="Potential@n0" format="binary">
AQAAAACAAACgAgAAlwEAAA==eJxjYACBD/tnTTcJuPL//f577YIFH4F0St+sfVuvvt8vZO5U/PT9+/3TtyUU3Vjwfv/f+tNphUBxcdYFrXyN7/fnTS49rf7h/X7VPyLcMsfe739xc10fZ9/7/S7LevVWpr/fb36O486zT+/3V9yrklx6+v3+w8WrXvtOf78/u2tBrVDB+/07eu/NeA2UN9ZfV7QOKF9w2fV1DFDeiYvlvDxQ/k+K/wKQ/GK30EaQvPGxzUyxQHlJpZOPQfLb/kaB5Q9K54DlH7reAMuz17wEyx/jjwbLB9pD5HfUQeQz10HkH0HlO6DyAvUQ+W045AWh8jsGSB6X+wKg8hOg/nu8FtX/M6Qg8rnaEHk5NYh8GzT8YjpCwPLupxeB5R/8mAiWd3KDhP+RPSbg+KnPTnwAip95rrNXg+SvXTsFjj+LN3cvLAHKc6T6MbmD5FfdvPQ7//1+pr6q86D4P/GP/TQfMH2wpkSeceh6v//A4k3RKyLf71d56Pr36qv3+8/Ouf874AIwHt9PzizYANRfHni9HpjeAKWen7w=
</DataArray>
<DataArray type="Float64" Name="Potential@n1" format="binary">
AQAAAACAAACgAgAAmAEAAA==eJzbw6/84NH/9/v1VqaE/3//fn/e5NLT6h/e798b8rr+45n3+x/oftP4ff/9fsMTu28dmP1+f/8dHj7nA+/3d5XEuCXHv99vfo7jzrNP7/cr3489Me/0+/1b9VRWOE5/v1+SuymZteD9/h2992a8Bso3px7KWAeUV78oeCMGKH+ba+oueaD8nxT/BSD50AuujSD5xltTmWKB8s5+Kx+D5Lf9jQLLr2HOAcu7i98Ay5d6vQTLH+OPBsvr2EPkC+og8jLrIPKPoPIdUHmBeoj8NjT5Tqi8IFR+xwDLb0eTL4XK34D6z3Adqv/fGEHkm6Mg8kYREPk2aPglqqeA5Q+yHgTLtylsAss7uUHCf/UyqxqQfML/459B8fND2OEASP7atVPg+Av2nWe0Gihv6KWYFgyUZ/pdwc8JlGfqqzoPiv8VramPDp4E2s9g8nTlxPf7fVuW8LMkAeM540utAjA9Mc5v/cUN1H/Bq4Jn/oL3+3PZk35WAenPLpU9b4Dpb8GBf967gPQh1ROJk4G0/tWfx1uANACJaJ/R
</DataArray>
<DataArray type="Float64" Name="PotentialEdgeFlux" format="binary">
AQAAAACAAACgAgAA2gEAAA==eJw78/ugt3zyor1J97hMC88c2Kv9Z+5XB0aRfTNZFn1piZPax8V35rrinn17xS/Ofl3lLbXP8dXFQ3wKh/YGBixhflctsq91y6GtlcoC+/RFIqKLK0T3yZ/hDDsZL7pPReafv8cf/n2lvW9m2OkL7Pvc1LXdforovoBnck5SQLr3+vWHrEDxHxXfLgUD6cpwhaX5QHF1qTdZIPrVi6tVIHGWf5lfQPQLv9gPIHGbtUxgWuHIg88g8a/K88Dy0hMugcUfMkFoOb+5YPHIUoj8erfLYPGbrhBavAQivhcqf8cdIn4bSu+Biu+H0veh4neh9D6o+D4y5fejmf8AKg6jD0PFBcog9AQPiHitJ4TOqYSIc82C0LVHIeJfI6+A6bI9C8DiXYu3guk5v5U/gsSdQ5vB9MY2kW8gcV/bBuYQIH129zyVAqC4/pMLiSB64ZR9T0Di7blyjbFAWp1jIstEoPjEpSpSO0DxcPfpprdAcd150pUZpgL7AnMnN0esEN13h4+9be9+0X0/Nv963t4nsG/S54tqetuE93XYRv1eLCi1r3tOpgTzMsl9gm9nCjY8FNx35VKlIyv/Httpxx+qvVG9aJsSbv1h8fZ7trv8WZ1fXXxkCwCjUFMC
</DataArray>
<DataArray type="Float64" Name="PotentialEdgeFlux:Potential@n0" format="binary">
AQAAAACAAACgAgAATQAAAA==eJzTsrqU6Dd7it0JNeU93kB6CbcZm2ZWqx17VmHGQuYeuDiMzwqlF0PVoatnHyB5Dqg4jIaJL6WT+QNt/1ANf/R0BqM1oekSAJ7E1x0=
</DataArray>
<DataArray type="Float64" Name="PotentialEdgeFlux:Potential@n1" format="binary">
AQAAAACAAACgAgAATQAAAA==eJzTsrqU6Dd7yr4Tasp7vIH0Em4zNs2s1n3sWYUZC5l74OIwPiuUXgxVh66efYDkOaDiMBomvpRO5g+0/UM1/NHTGYzWhKZLAEP9ASw=
</DataArray>
<DataArray type="Float64" Name="edge_index" format="binary">
AQAAAACAAACgAgAA/gAAAA==eJxdkrFOwlAARRunDgzvAxhkw8SFmJBAYnxqBKIQqlDBasUCQv0AFr6AkU9gJPIDhi9wdGF3bJxYXJhMuWfyLSe3t+fdNKnjpOf7bA/nwIoZmIU5u3pPzxH5GBb+5RPr709R2ZZgWc83p2QrLs7Fwwvd/3NJf0Vfoa/S1+iv6W/o6/QN+qboeeLc0/7klvfvxC9oWup/W9zbxvfxffx7/A4+NF38Lv4DfoAf4D/iP+FDE+KH+M/4Pfyevq/8QoYJdCP104h7Yb4v1vrq12QzEGM4G6jfkb2huISfQ/Zf2YcJdEfsj9iH+TH7Y/bJJmY/5n8hf8AtNG/2D7oDh6s=
</DataArray>
<DataArray type="Float64" Name="unitx" format="binary">
AQAAAACAAACgAgAATgAAAA==eJxjYACBB/b9RUyRev/v23tYNupM///cPhQMrtozKKzbeN+EC8E/IKc4tUIQrg5Gx/usmXAy5CmcHpUflSdGHsaHpT8YzQBNlwAN0kci
</DataArray>
<DataArray type="Float64" Name="unity" format="binary">
AQAAAACAAACgAgAAWwAAAA==eJxjYACBB/auB3zWSKy7b9/VMDPCMOa8fSgYXLW/N//mys8aD+D8Jf/fHek8dBWuDkazr979VOHFFTg90uU7oeIwmg0qzjZEzKeX+2DqYekPRjNA0yUA1uFK+w==
</DataArray>
</PointData>
<CellData>
<DataArray type="Float64" Name="ElementEdgeCouple" format="binary">
AQAAAACAAADAAwAANQAAAA==eJxL8zkolX75oV3aIKFTaUxnkEgnkUiTaj6t3RNLIl1EIk2q+0l1D63Dk9Y0rf0LAHjj07Y=
</DataArray>
<DataArray type="Float64" Name="ElementNodeVolume" format="binary">
AQAAAACAAADAAwAASgAAAA==eJy7dLn/mX3wJNtLdKYv4+BfxEFfIsAnVv0VHPRVHPxzOOjzOPikmk9r95zAQZ/Cwb+Pg36Ag0+q+0l1D63Dk9bqae1fAO3uGbs=
</DataArray>
</CellData>
</Piece>
</UnstructuredGrid>
</VTKFile>
