<?xml version="1.0"?>
<VTKFile type="UnstructuredGrid" version="0.1" byte_order="LittleEndian" compressor="vtkZLibDataCompressor">
<UnstructuredGrid>
<Piece NumberOfPoints="205" NumberOfCells="240">
<Points>
<DataArray type="Float64" NumberOfComponents="3" format="binary">
AQAAAACAAAA4EwAADwIAAA==eJyN0z0OEkEYgOEJIRtCCFlgWWD52eWnt7aCzitYewYrbcaTeAMrtdTWkguYYEdJQUFBIcZO5kmc8pvZfeYtJoS/633x6dWvd2+/h/9ax336/HGvL6oXP3fZhy9P+98+/tn5+s/8uE+fP+7T50N4k79++fnH83/S8xPuf8L9T7jPCfc5wT3DPcM9wz3DPcO9wL3AvcC9wL3AvcK9wr3CvcK9wr3BvcG9wb3BvcG9w73DvcO9w73DDQe830PaDQe8xwPe1yHttuC24LbgtuC24LbhtuG24bbhtuFmcDO4GdwMbga3A7cDtwO3A7cDtwu3C7cLtwu3C7cHtwe3B7cHtwe3D7cPtw+3D7cPN4ebw83h5nBzuAO4A7gDuAO4A7hDuEO4Q7hDuEO4I7gjuCO4I7gjuAXcAm4Bt4BbwB3DHcMdwx3DHcMt4ZZwS7gl3BLuBO4E7gTuBO4E7hTuFO4U7hTuFO4M7gzuDO4M7gxuBbeCW8Gt4FZw53DncOdw53DncBdwF3AXcBdwF3CXcJdwl3CXcJdwV3BXcFdwV3BXcGu4Ndwabg23htvAbeA2cBu4TdqNcCPcCDfCjXDDGr3rtPuYp3vX6F2jF26EG+FGuBFu2KB3k3Yf83TvBr0b9MKNcCPcCDfCDVv0btPuY57u3aJ3i164EW6EG+FGuGGH3l3afczTvTv07p7c39QFpIs=
</DataArray>
</Points>
<Cells>
<DataArray type="Int32" Name="connectivity" format="ascii">
 0 1 2 1 2 3 2 3 10 3 10 11 4 5 6 5 6 7 5 7 8 6 7 12 7 8 9 7 9 13 7 12 13 9 13 14 10 11 15 11 15 16 12 13 17 13 14 18 13 17 18 14 18 19 15 16 20 16 20 21 17 18 22 18 19 23 18 22 23 19 23 24 20 21 25 21 25 26 22 23 27 23 24 28 23 27 28 24 28 29 25 26 30 26 30 31 27 28 32 28 29 33 28 32 33 29 33 34 30 31 35 31 35 36 32 33 37 33 34 38 33 37 38 34 38 39 35 36 40 36 40 41 37 38 42 38 39 43 38 42 43 39 43 44 40 41 45 41 45 46 42 43 47 43 44 48 43 47 48 44 48 49 45 46 50 46 50 51 47 48 52 48 49 53 48 52 53 49 53 54 50 51 55 51 55 56 52 53 57 53 54 58 53 57 58 54 58 59 55 56 60 56 60 61 57 58 62 58 59 63 58 62 63 59 63 64 60 61 65 61 65 66 62 63 67 63 64 68 63 67 68 64 68 69 65 66 70 66 70 71 67 68 72 68 69 73 68 72 73 69 73 74 70 71 75 71 75 76 72 73 77 73 74 78 73 77 78 74 78 79 75 76 80 76 80 81 77 78 82 78 79 83 78 82 83 79 83 84 80 81 85 81 85 86 82 83 87 83 84 88 83 87 88 84 88 89 85 86 90 86 90 91 87 88 92 88 89 93 88 92 93 89 93 94 90 91 95 91 95 96 92 93 97 93 94 98 93 97 98 94 98 99 95 96 100 96 100 101 97 98 102 98 99 103 98 102 103 99 103 104 100 101 105 101 105 106 102 103 107 103 104 108 103 107 108 104 108 109 105 106 110 106 110 111 107 108 112 108 109 113 108 112 113 109 113 114 110 111 115 111 115 116 112 113 117 113 114 118 113 117 118 114 118 119 115 116 120 116 120 121 117 118 122 118 119 123 118 122 123 119 123 124 120 121 125 121 125 126 122 123 127 123 124 128 123 127 128 124 128 129 125 126 130 126 130 131 127 128 132 128 129 133 128 132 133 129 133 134 130 131 135 131 135 136 132 133 137 133 134 138 133 137 138 134 138 139 135 136 140 136 140 141 137 138 142 138 139 143 138 142 143 139 143 144 140 141 145 141 145 146 142 143 147 143 144 148 143 147 148 144 148 149 145 146 150 146 150 151 147 148 152 148 149 153 148 152 153 149 153 154 150 151 155 151 155 156 152 153 157 153 154 158 153 157 158 154 158 159 155 156 160 156 160 161 157 158 162 158 159 163 158 162 163 159 163 164 160 161 165 161 165 166 162 163 167 163 164 168 163 167 168 164 168 169 165 166 170 166 170 171 167 168 172 168 169 173 168 172 173 169 173 174 170 171 175 171 175 176 172 173 177 173 174 178 173 177 178 174 178 179 175 176 180 176 180 181 177 178 182 178 179 183 178 182 183 179 183 184 180 181 185 181 185 186 182 183 187 183 184 188 183 187 188 184 188 189 185 186 190 186 190 191 187 188 192 188 189 193 188 192 193 189 193 194 190 191 195 191 195 196 192 193 197 193 194 198 193 197 198 194 198 199 195 196 200 196 200 201 197 198 202 198 199 203 198 202 203 199 203 204
</DataArray>
<DataArray type="Int32" Name="offsets" format="ascii">
 3 6 9 12 15 18 21 24 27 30 33 36 39 42 45 48 51 54 57 60 63 66 69 72 75 78 81 84 87 90 93 96 99 102 105 108 111 114 117 120 123 126 129 132 135 138 141 144 147 150 153 156 159 162 165 168 171 174 177 180 183 186 189 192 195 198 201 204 207 210 213 216 219 222 225 228 231 234 237 240 243 246 249 252 255 258 261 264 267 270 273 276 279 282 285 288 291 294 297 300 303 306 309 312 315 318 321 324 327 330 333 336 339 342 345 348 351 354 357 360 363 366 369 372 375 378 381 384 387 390 393 396 399 402 405 408 411 414 417 420 423 426 429 432 435 438 441 444 447 450 453 456 459 462 465 468 471 474 477 480 483 486 489 492 495 498 501 504 507 510 513 516 519 522 525 528 531 534 537 540 543 546 549 552 555 558 561 564 567 570 573 576 579 582 585 588 591 594 597 600 603 606 609 612 615 618 621 624 627 630 633 636 639 642 645 648 651 654 657 660 663 666 669 672 675 678 681 684 687 690 693 696 699 702 705 708 711 714 717 720
</DataArray>
<DataArray type="UInt8" Name="types" format="ascii">
 5 5 5 5 5 5 5 5 5 5 5 5 5 5 5 5 5 5 5 5 5 5 5 5 5 5 5 5 5 5 5 5 5 5 5 5 5 5 5 5 5 5 5 5 5 5 5 5 5 5 5 5 5 5 5 5 5 5 5 5 5 5 5 5 5 5 5 5 5 5 5 5 5 5 5 5 5 5 5 5 5 5 5 5 5 5 5 5 5 5 5 5 5 5 5 5 5 5 5 5 5 5 5 5 5 5 5 5 5 5 5 5 5 5 5 5 5 5 5 5 5 5 5 5 5 5 5 5 5 5 5 5 5 5 5 5 5 5 5 5 5 5 5 5 5 5 5 5 5 5 5 5 5 5 5 5 5 5 5 5 5 5 5 5 5 5 5 5 5 5 5 5 5 5 5 5 5 5 5 5 5 5 5 5 5 5 5 5 5 5 5 5 5 5 5 5 5 5 5 5 5 5 5 5 5 5 5 5 5 5 5 5 5 5 5 5 5 5 5 5 5 5 5 5 5 5 5 5 5 5 5 5 5 5 5 5 5 5 5 5
</DataArray>
</Cells>
<PointData>
<DataArray type="Float64" Name="AtContactNode" format="binary">
AQAAAACAAABoBgAAFQAAAA==eJxjYBgFo2AUjIJRMApoBwAGaAAB
</DataArray>
<DataArray type="Float64" Name="ContactNSurfaceNormal_x" format="binary">
AQAAAACAAABoBgAAFQAAAA==eJxjYBgFo2AUjIJRMApoBwAGaAAB
</DataArray>
<DataArray type="Float64" Name="ContactNSurfaceNormal_y" format="binary">
AQAAAACAAABoBgAAFQAAAA==eJxjYBgFo2AUjIJRMApoBwAGaAAB
</DataArray>
<DataArray type="Float64" Name="ContactSurfaceArea" format="binary">
AQAAAACAAABoBgAAFQAAAA==eJxjYBgFo2AUjIJRMApoBwAGaAAB
</DataArray>
<DataArray type="Float64" Name="NSurfaceNormal_x" format="binary">
AQAAAACAAABoBgAAFQAAAA==eJxjYBgFo2AUjIJRMApoBwAGaAAB
</DataArray>
<DataArray type="Float64" Name="NSurfaceNormal_y" format="binary">
AQAAAACAAABoBgAAFQAAAA==eJxjYBgFo2AUjIJRMApoBwAGaAAB
</DataArray>
<DataArray type="Float64" Name="NodeVolume" format="binary">
AQAAAACAAABoBgAAOAAAAA==eJyrFlnn/rDKxL4ahXaB0w1gWgVKm6DRmPLY9aOrH1U3qm5U3ai6UXXDQx2Cxl5fqNgDAO3IskA=
</DataArray>
<DataArray type="Float64" Name="SurfaceArea" format="binary">
AQAAAACAAABoBgAAFQAAAA==eJxjYBgFo2AUjIJRMApoBwAGaAAB
</DataArray>
<DataArray type="Float64" Name="coordinate_index" format="binary">
AQAAAACAAABoBgAAbgEAAA==eJxNzquu1FAYBeAtkTwCshIDFEUVVPZgwECAQGg4gZTDrdw393I76SOMrBxZWTlyHmHkyC0rEf0moebL7r+yskL4/0tXFvNi8TIv8OJivOp9jZf8P7xLbxZH3pwYrrsfvCHHieGm+8FbcpwYbrtzddedO4Z7i+e4ui/HHcMDOa4eynHHUMtx9UiOO4ZjOa4ey3HH8ESOVbN4hw0je26f6mFiOFk8y+qZPjaM7Ll9ro+J4YU+Vi/1sWFkz+0rfUwMrT5Wr/WxYWTP7Rt9TAxv9bF6p48NI3tu3+tjYvigj9VHfWwY2bOO7mwZ2TH7tHieOQuW3DNxZvi8eIYD1xw5ccP6i31sGdkx+2ofcxYsuWfizPDNPg5cc+TEDevv9rFlZMfsh33MWbDknokzQ2cfB645cuKG9U/72DKyY/bLPuYsWHLPxJnht30cuObIiRvWf+xjy8iO2V/7mLNgyT0TZ4ZT+zhwzfG0+AfTxu/7
</DataArray>
<DataArray type="Float64" Name="node_index" format="binary">
AQAAAACAAABoBgAANAEAAA==eJxNyzeOVkEQhdEbEhIQEBCMEEIIIYT3MD14771tPLOLWspbSi3lLYElEPwnoJPTV58q+f/93fYZG/ZwL/dxPw9wiwd5iId5hEd5jMd5gid5iqd5hmd5jud5gRd5iZd5hVd5jdscG4vZsZnrNnPDZm7azC2buW0zd2zmrs3cs5n7NvPAZh7azCObeWwzT2zm6cbBYjPPdBabea6z2MwLncVmXuosNvNKZ7GZ1zqLzbzRWWzmrc5iM+90Fpt5r7PYzAedxWY+6iw280lnsZnPOovNfNFZbGZu3OLgZHFhc2W+uufgZHFhc2W+uefgZHFhc2W+u+fgZHFhc2V+uOfgZHFhc2V+uufgZHFhc2V+uefgZHFhc2V+u+fgZHFhc2X+uOfgZHFhc2V23XNwsnbHP/edtr0=
</DataArray>
<DataArray type="Float64" Name="x" format="binary">
AQAAAACAAABoBgAAeAAAAA==eJyNyTsKwlAURdGLiEgQMRr/8RPjPHRob4gOwTKlRYoUKawsBMF1msVhR/za4/at9s9/og36Qlu0Q3s07uYAHaIjdIxm6ASdojM0R+foAi3QJbpC1+gG3aI7dI+W6AE9oif0bCY0KjOhcTETGrWZ0Lj+9Q0f8Wpu
</DataArray>
<DataArray type="Float64" Name="y" format="binary">
AQAAAACAAABoBgAAPQAAAA==eJyrFlnn/rCqZD8DFFSj8aX076qwNW613zcfxNpmj85PEoiw3HICQRPSP6puVN2oulF1o+pGljoAY+86Hg==
</DataArray>
<DataArray type="Float64" Name="z" format="binary">
AQAAAACAAABoBgAAFQAAAA==eJxjYBgFo2AUjIJRMApoBwAGaAAB
</DataArray>
<DataArray type="Float64" Name="EdgeCouple" format="binary">
AQAAAACAAABoBgAATgAAAA==eJwL2iHX+jpwg/3hrxox/YeW2gdB+TBaEyj6VQNBa0DpbtX9EZ+6t9r3gOmlcHF0/ejqR9WNqhtVN6puVN3wUIdeb8DqA/R6AwBNbieA
</DataArray>
<DataArray type="Float64" Name="EdgeInverseLength" format="binary">
AQAAAACAAABoBgAAXgAAAA==eJxjYACChkgHXl6D7wGhgQ5ThE8U/az3gtO//gOBfabDinK16SA67L2P3v/9kQ6WXsYl//8nwGmYOLp+dPWj6kbVjaobVTeqbniog9UbDNB6BCYPqy9g9QcAaZUjdg==
</DataArray>
<DataArray type="Float64" Name="EdgeLength" format="binary">
AQAAAACAAABoBgAAaAAAAA==eJwL2iHX+jrwgP3j7/0qdT1H7V//zJ4dp3nC/hWU1ozpP/RV44D9lhD3n/yaB+wXLPsvPlXkhH2D8apTxwqOwmmYOLp+dPWj6kbVjaobVTeqbnioewKtN4Kg9QhMHlZfwOoPAKwha7E=
</DataArray>
<DataArray type="Float64" Name="EdgeNodeVolume" format="binary">
AQAAAACAAABoBgAAQgAAAA==eJyrFlnn/rBKxd5f+sWWRj9p+2ooH0Y3gGkRDDoUqh5Cc8PFcemHqR9VN6puVN2oulF1w0Mder2BXh/AaAAWeZYY
</DataArray>
<DataArray type="Float64" Name="edge_index" format="binary">
AQAAAACAAABoBgAAHgIAAA==eJw11EFIk3EcxvH3oDCkww4KEh0WKI0QEUpYIPgnG1lWvKWrpWYzt3ydS19101fXYYeCER12KNihww4FUh12MPDQwUPCiA47FOzQ4T0USHTYoUDEQ+jz7b18eHif/d/f+3/fd5Z1dPiD794eHQeDx9EKGNmOp2Whi3wGe41+10s+hz30/+d+9c5eIA9wHkNGJgy9i5wfkjtYiUo/ynUvs94VaTA0wnojrHed9W6wHtq2dG0TOz5ust4t1sHgqOwbVa9jjHXQx3pMNmPqfbvNde8wP5bishpX7+Vd5h9nbrQnmG+C+SaZ7x7zYXCK+aaY7z7zoY9OQnoJ7csvspnmeljDxrR6Vx8wP1YxPCMjMzwPspVkLixiOaleW4r7RBf3cD+lXvoh94F1HJ6V8Vn1PpNDDvuAm7jt8B7MKRewhIG07Eyr94zsYxOdeenNs39kk5E21rCRYf8eKVewiuEFGVlg/8jWogxiEcuLer6tLveJEcziY1e9D2Qf97BrSfYsqZcil7CMX/E7vY5l7heH8Qk+X1Zvl9zEfTy/IgdW1MuRK7iJP/A3ve6sso1xfIGvsnxvZCsnA3gJr+XUe0qu4jb+wUN6/avKCXTwNb5fVe8nObgmO3EMJ9f4zsk7WMMWT57w1IuSXfRwCz/S+0sOrcswJjGzrt4bch0b2L4hT23w/0IuYBE/4Rd6rXnlvrze25NkgzZ6WMybf+9iQPc=
</DataArray>
<DataArray type="Float64" Name="unitx" format="binary">
AQAAAACAAABoBgAAZQAAAA==eJxjYACBB/bxPmsmnAx5au9h2agz/f9zOM0Alf99zXry6f/37etezz35FCgeCgZXgfLhO6ZVfrSDiaPrh4kvf6KeZBT61H5U3ai6UXWj6kbVDQ91sHoDVk/A5GH1BUwcANZkqeo=
</DataArray>
<DataArray type="Float64" Name="unity" format="binary">
AQAAAACAAABoBgAAZAAAAA==eJxjYACBB/bsq3c/VXhxxb6rYWaEYcx5OM0AlTc7u/Qw1/X79jmzvNtF1523DwWDq/a8M88u/dh9FS6Orh8mPlfwLstOuVF1o+pG1Y2qG1U3XNTB6g1YPQGTh9UXMHEAyobayw==
</DataArray>
</PointData>
<CellData>
<DataArray type="Float64" Name="ElementEdgeCouple" format="binary">
AQAAAACAAACABwAALQAAAA==eJw79FUjpv/QUvtDOOge1f0Rn7rJp0k1b1T9qPpR9aPqR9WPqh8J6gERyPzO
</DataArray>
<DataArray type="Float64" Name="ElementNodeVolume" format="binary">
AQAAAACAAACABwAAKgAAAA==eJzzk36xpdFP2t4PBx0KprnJpkk1b1T9qPpR9aPqR9WPqh8J6gFCJPWf
</DataArray>
</CellData>
</Piece>
</UnstructuredGrid>
</VTKFile>

