<?xml version="1.0"?>
<VTKFile type="UnstructuredGrid" version="0.1" byte_order="LittleEndian" compressor="vtkZLibDataCompressor">
<UnstructuredGrid>
<Piece NumberOfPoints="105" NumberOfCells="160">
<Points>
<DataArray type="Float64" NumberOfComponents="3" format="binary">
AQAAAACAAADYCQAAPgEAAA==eJx10a9KxWAcBuAvDFlYGGOMMcbYv+4FGM7uQMS7MJjMgsFoMtgMgiB4AwavwW4QDxgtaw6TwXbOni++vPC8fL8Q/t9Lc/198nK/CTvv6PP45u78YSffbtb72816P4Tq8GM8uHrc66/nIfxenr1e3D7t9dfzEN7ffk6/Hp/3+uv5jP0z9s/YOWPPDHeBu8Bd4C5wF7hhwn0n3GvCXSb8/7TuRnAjuBHcCG4EN4Ybw43hxnBjuAncBG4CN4GbwE3hpnBTuCncFG4GN4Obwc3gZnBzuDncHG4ON4dbwC3gFnALuAXcEm4Jt4Rbwi3hVnAruBXcCm4Ft4Zbw63h1nBruA3cBm4Dt4HbwG3htnBbuC3cFm4Ht4Pbwe3gdnB7uD3cHm4Pt4c7wB3gDnAHuAPcEe4Id4Q7wh333D/2oeBn
</DataArray>
</Points>
<Cells>
<DataArray type="Int32" Name="connectivity" format="ascii">
 0 1 2 1 2 3 1 3 4 2 3 10 3 4 5 3 5 11 3 10 11 4 5 6 5 6 7 5 7 12 5 11 12 6 7 8 7 8 9 7 9 13 7 12 13 9 13 14 10 11 15 11 12 16 11 15 16 12 13 17 12 16 17 13 14 18 13 17 18 14 18 19 15 16 20 16 17 21 16 20 21 17 18 22 17 21 22 18 19 23 18 22 23 19 23 24 20 21 25 21 22 26 21 25 26 22 23 27 22 26 27 23 24 28 23 27 28 24 28 29 25 26 30 26 27 31 26 30 31 27 28 32 27 31 32 28 29 33 28 32 33 29 33 34 30 31 35 31 32 36 31 35 36 32 33 37 32 36 37 33 34 38 33 37 38 34 38 39 35 36 40 36 37 41 36 40 41 37 38 42 37 41 42 38 39 43 38 42 43 39 43 44 40 41 45 41 42 46 41 45 46 42 43 47 42 46 47 43 44 48 43 47 48 44 48 49 45 46 50 46 47 51 46 50 51 47 48 52 47 51 52 48 49 53 48 52 53 49 53 54 50 51 55 51 52 56 51 55 56 52 53 57 52 56 57 53 54 58 53 57 58 54 58 59 55 56 60 56 57 61 56 60 61 57 58 62 57 61 62 58 59 63 58 62 63 59 63 64 60 61 65 61 62 66 61 65 66 62 63 67 62 66 67 63 64 68 63 67 68 64 68 69 65 66 70 66 67 71 66 70 71 67 68 72 67 71 72 68 69 73 68 72 73 69 73 74 70 71 75 71 72 76 71 75 76 72 73 77 72 76 77 73 74 78 73 77 78 74 78 79 75 76 80 76 77 81 76 80 81 77 78 82 77 81 82 78 79 83 78 82 83 79 83 84 80 81 85 81 82 86 81 85 86 82 83 87 82 86 87 83 84 88 83 87 88 84 88 89 85 86 90 86 87 91 86 90 91 87 88 92 87 91 92 88 89 93 88 92 93 89 93 94 90 91 95 91 92 96 91 95 96 92 93 97 92 96 97 93 94 98 93 97 98 94 98 99 95 96 100 96 97 101 96 100 101 97 98 102 97 101 102 98 99 103 98 102 103 99 103 104
</DataArray>
<DataArray type="Int32" Name="offsets" format="ascii">
 3 6 9 12 15 18 21 24 27 30 33 36 39 42 45 48 51 54 57 60 63 66 69 72 75 78 81 84 87 90 93 96 99 102 105 108 111 114 117 120 123 126 129 132 135 138 141 144 147 150 153 156 159 162 165 168 171 174 177 180 183 186 189 192 195 198 201 204 207 210 213 216 219 222 225 228 231 234 237 240 243 246 249 252 255 258 261 264 267 270 273 276 279 282 285 288 291 294 297 300 303 306 309 312 315 318 321 324 327 330 333 336 339 342 345 348 351 354 357 360 363 366 369 372 375 378 381 384 387 390 393 396 399 402 405 408 411 414 417 420 423 426 429 432 435 438 441 444 447 450 453 456 459 462 465 468 471 474 477 480
</DataArray>
<DataArray type="UInt8" Name="types" format="ascii">
 5 5 5 5 5 5 5 5 5 5 5 5 5 5 5 5 5 5 5 5 5 5 5 5 5 5 5 5 5 5 5 5 5 5 5 5 5 5 5 5 5 5 5 5 5 5 5 5 5 5 5 5 5 5 5 5 5 5 5 5 5 5 5 5 5 5 5 5 5 5 5 5 5 5 5 5 5 5 5 5 5 5 5 5 5 5 5 5 5 5 5 5 5 5 5 5 5 5 5 5 5 5 5 5 5 5 5 5 5 5 5 5 5 5 5 5 5 5 5 5 5 5 5 5 5 5 5 5 5 5 5 5 5 5 5 5 5 5 5 5 5 5 5 5 5 5 5 5 5 5 5 5 5 5 5 5 5 5 5 5
</DataArray>
</Cells>
<PointData>
<DataArray type="Float64" Name="AtContactNode" format="binary">
AQAAAACAAABIAwAAHQAAAA==eJxjYACBD/YMFAFK9Y+CUTCYAaH0/cEeAJfNBL0=
</DataArray>
<DataArray type="Float64" Name="ContactNSurfaceNormal_x" format="binary">
AQAAAACAAABIAwAAEAAAAA==eJxjYBgFo2AUUAoAA0gAAQ==
</DataArray>
<DataArray type="Float64" Name="ContactNSurfaceNormal_y" format="binary">
AQAAAACAAABIAwAAEAAAAA==eJxjYBgFo2AUUAoAA0gAAQ==
</DataArray>
<DataArray type="Float64" Name="ContactSurfaceArea" format="binary">
AQAAAACAAABIAwAAEAAAAA==eJxjYBgFo2AUUAoAA0gAAQ==
</DataArray>
<DataArray type="Float64" Name="NSurfaceNormal_x" format="binary">
AQAAAACAAABIAwAAEAAAAA==eJxjYBgFo2AUUAoAA0gAAQ==
</DataArray>
<DataArray type="Float64" Name="NSurfaceNormal_y" format="binary">
AQAAAACAAABIAwAAHwAAAA==eJxjYMAGPuzHKkwQwPQR0j+qblTdUFJHGAAAi6I/+w==
</DataArray>
<DataArray type="Float64" Name="NodeVolume" format="binary">
AQAAAACAAABIAwAAMgAAAA==eJz7UZe1p2Syh/0PMB2BRmfY/4Hy/+Dg/yBKfwaa+lF1o+qGkjpE+v6DRsPkAcrKv9I=
</DataArray>
<DataArray type="Float64" Name="Potential" format="binary">
AQAAAACAAABIAwAA1gEAAA==eJxjYIAAf3+ukjsW2vY1/49vmi560/510IKg2oY79hcPL7vGdcnIntfgt3D+m/v2VWdXqp201bU/YH1t1rE1D+2h2hl+Xc0R/JP82D79EGufgcZNe4PpLZn8U+7Y+6wR+/vu/337FD32Jc+3PrQ3T4+Rv5H92D5O/GqEA1Dd/PwMFQWgOm2ZmR/+A9UFzthy7z1Q3XmWrKP3geouJf5LA6nLe1VuDFK3iuHTf5C6ucFmz0Dqqt8WnwGpa7PkTgepU5vWClbn9vk/WF2Zhi1YXUd4FVidkStE3eRFEHVf/0PUrdGDqIuLhaizhaqbD1UH8eUD+01QdckkqrOBqps3SNUR6w8TqLqpUHXfoeG3FqouHqrurjVE3eIZEHUXv0LUbdWEqNscAVEX+ZUBrG7NiiqwuvCzX8Dq9mwyB6uzNy8FqxOasioapO6sUK46SJ3yhrWfQepevDR7AFKnefjKMZC6HQ371xgD1aVIaO4TAqrLVxZK+QRU9y8v0u8lUF2C2851N4HqVKznBXBK3rR3v3Fa0LPljr3d5xN3Ij7ct8/7l121Zt1D+3Ofwx9sSX1sP2smCOy0j1of4ZO8ZKf93B2rOVas2Gkv+X/jodSlO+HyAIxDm2g=
</DataArray>
<DataArray type="Float64" Name="Potential_prev" format="binary">
AQAAAACAAABIAwAAEAAAAA==eJxjYBgFo2AUUAoAA0gAAQ==
</DataArray>
<DataArray type="Float64" Name="SurfaceArea" format="binary">
AQAAAACAAABIAwAAJQAAAA==eJxjYMAGLthjFSYIYPoeEND/YFTdqLpBoI5QOic+HwAAPlUqWw==
</DataArray>
<DataArray type="Float64" Name="coordinate_index" format="binary">
AQAAAACAAABIAwAAzAAAAA==eJw1zEsuRUEUhtE9BA0NDY07Ba8upYEOEkJICEW8n3cINQRDqCEYwh5KDUU4y+ms7PrznYjfb6H8EYtc4SqXuMZlrnPGDW5yi2WyMbbdO+5dN2PPzdh3Mw7cjMPJcuSdyTi2s53YGad2NuaZ/dzOxmRc2NmYjEv7lZ3JuLYz6+Rg3EzOWFhv/Y+dycG407OwsrHf6zkYD3qWRz0bO5PjSf+sZ2Fle9EzORiv+jc9Kxs7813P+NCzsH7q2Zkc//t88oud38x5+QGivWTj
</DataArray>
<DataArray type="Float64" Name="drain_potential_bc" format="binary">
AQAAAACAAABIAwAAEAAAAA==eJxjYBgFo2AUUAoAA0gAAQ==
</DataArray>
<DataArray type="Float64" Name="drain_potential_bc:Potential" format="binary">
AQAAAACAAABIAwAAFQAAAA==eJxjYBgFo2AU4Acf7AnJAwAtZgJf
</DataArray>
<DataArray type="Float64" Name="node_index" format="binary">
AQAAAACAAABIAwAAtgAAAA==eJxNyTdOQ2EQhdFbUlJQUFAghCwLIUTGRD+Tk8l5NbO0f0ksgeKdgmnOfLrJ//sde7qeGc5yjvNc4CKXuMwBh1zhKte4zg1ucovb3OEu9zjiPg94yCMe84Rjdr3FTDRzqpkzzZxr5kIzl5q50sy1Zm40c6uZO83ca2aqmQfNPGrmqbdjsTHPdhYb82JnsTGvdhYb82ZnsTHvdhYb82FnsTGfdhYb82VnsTHfdhYb89P9AfYCTX4=
</DataArray>
<DataArray type="Float64" Name="source_potential_bc" format="binary">
AQAAAACAAABIAwAAEAAAAA==eJxjYBgFo2AUUAoAA0gAAQ==
</DataArray>
<DataArray type="Float64" Name="source_potential_bc:Potential" format="binary">
AQAAAACAAABIAwAAGAAAAA==eJxjYACBD/YMFAFK9Y+CUTC0AQBtrwJf
</DataArray>
<DataArray type="Float64" Name="x" format="binary">
AQAAAACAAABIAwAATQAAAA==eJxjYMAGHtij0ujihPgfiKR/EEkzOBBHsxBJcxBJ8xBJCxBJCxFJixBJixFJSxBJSxFJyxBJyxFJKxBJKxJJKxFJKxNJqxCkAQIfLjw=
</DataArray>
<DataArray type="Float64" Name="y" format="binary">
AQAAAACAAABIAwAAQgAAAA==eJzbIdf6OnDHPHvr+/690/MW2e9A40vp31Vha1wKp3/VZe0pmbwCTt889z348dLVcBqXfnT1o+pG1Q0ndQBX1LIs
</DataArray>
<DataArray type="Float64" Name="z" format="binary">
AQAAAACAAABIAwAAEAAAAA==eJxjYBgFo2AUUAoAA0gAAQ==
</DataArray>
<DataArray type="Float64" Name="EdgeCouple" format="binary">
AQAAAACAAABIAwAALwAAAA==eJz7d6XipZrhAft/aPRf6YU996YdJciH0Ftx6kenR9WNqhtK6nClb3QaALie6B0=
</DataArray>
<DataArray type="Float64" Name="EdgeInverseLength" format="binary">
AQAAAACAAABIAwAARgAAAA==eJwLDwUC0VAHr7NR+0KAtI1rgnrIVFeHpRuvdh4t9HFwg4ovwMGHqYPpQ9e/AI0eVTeqbiipg8nD8ocbGh0OzT8AXx97sA==
</DataArray>
<DataArray type="Float64" Name="EdgeLength" format="binary">
AQAAAACAAABIAwAASAAAAA==eJz7d6XipZrhBfvDH86s8AHSzm0CJjslbthviM129Sm7ChfHxYfRLlB9MP3roeLo9Ki6UXVDSR2Mfwia7tHpf9D8AwAWC2iM
</DataArray>
<DataArray type="Float64" Name="EdgeNodeVolume" format="binary">
AQAAAACAAABIAwAAOAAAAA==eJz7UZe1p2Syhf0PNPr3yo+XfJMc7P9A+X9x8CHqDHDq/4tGj6obVTeU1KGn7z9oNEwcADYQy08=
</DataArray>
<DataArray type="Float64" Name="ElectricField" format="binary">
AQAAAACAAABIAwAA9QEAAA==eJwzO9DAoGF4a78el5txSfft/Xs73/yI/8By4HZfbEHbHPYDLxZMMmTjmbPfJGN9qdIS9gMVnmfOnons27+dY0d48xr2A6JGh99tej99/1FVffaLYiwHWJ6Vy1TNZTxw+b/MdfFq9gM9hVoX+IC0etROm9dV7AfC43edkpvDeIDtvkCw7GzGAw3c8UrVlewHlFceUQbRHx+EioFos8KnnjJA+dn3fQKkgfT0FNv9lUBxy6MOYNqT1xxMi7Km+IPkNcvq/ED03Kd/9oLEBV9C6LkPIPSZxbVg+fmXasB096HfYPF+KA3jv7wIkVeB0g0HIeLNULoDSitD5ZVwqGuF0kpo6tDlB4s6RShdDxVvhNItaOraLkDoDQcg4mugNIz/7TxEPkkDQi+4/QssznIVQj+9DqHnNFSD5SeuOeQLoiv9/u0BiR8P/w6mP3/4BaZlarjB8mK7UuukgHRMd9riCqD40iUFc0E0x8p9YL56fMEeSaC8zNP5LsqzGA/wqpoUaFewH1i/QfeYFpAu6HaebwOkt0/KcymeyXggR8w/5FQWw4EdG1ZJFRxmPdC79HDIhgbWA3aTzKeutmM9cINv8W7tBb/3rzmc/3zy/Fv2d4q/TlA1uW6vztHv9czwtn14xvn7E93v27f19K5LXfvAHgB9PJ7L
</DataArray>
<DataArray type="Float64" Name="ElectricField:Potential@n0" format="binary">
AQAAAACAAABIAwAARgAAAA==eJwLDwUC0VAHr7NR+0KAtI1rgnrIVFeHpRuvdh4t9HFwg4ovwMGHqYPpQ9e/AI0eVTeqbiipg8nD8ocbGh0OzT8AXx97sA==
</DataArray>
<DataArray type="Float64" Name="ElectricField:Potential@n1" format="binary">
AQAAAACAAABIAwAARwAAAA==eJwLDwUC0dADXmej9oUAaRvXBPWQqa4Hlm682nm00OeAG1R8AQ4+TB1MH7r+BWj0qLpRdUNJHUwelj/c0OhwaP4BAOiasDA=
</DataArray>
<DataArray type="Float64" Name="Potential@n0" format="binary">
AQAAAACAAABIAwAAAwIAAA==eJxjYICA6t3s4UuzVOwVHfodvMVP2gsvOrdOQ/+6/XT1WcW+vXvsz5Y82KDOecveqOUXR/GP/fY9AT9ctz++Y69ubDa/YvJx+1ufr8fFW92xP/c1pmPuz5v2lxuNOnp679i7cmfILPl53/76X9WbQpsf2m824f6b8ueRvZiSr5YB8y17zzmF7VJT7th3lFvG//p/3/7YHx/Lt1sf2ns5WT5K/PfIfsWkc0EWQHUX56TpKQDVGW959Os/UB3PkZOP3wPV3eRRupgMVHdFXzkKpO7m7wZjkLqAyN//QeqiP1s9A6lzKHx5CaSu5ZomWF3KvFawuuMgZUB1q3RswepsBF6D1fXfgaibvQii7u9/iLoNehB12wQh6qZC1c2HqoOE5gP7jVB124eZuolQdTOh6n5Dw2UdVN0WqLoH1yHqeOdA1Nn8hKiL0Iaok+eDqDuzXgWszjerDhLOfT/A6swbLMHqauSeg9V1GZaEgNQdMJ2gDVIXynf+O0jdwizDRyB19zKnngOpE1ml+t0QqO7smx2h4qD41d7//htQ3fdG1rLXQHW79FfIxAPV3XTmdJ72+6b9j/r4j8s679hP9lCXafkKTFftJSr/Njy0l/Iu/VX985H9x1rXGbaMV+wLw1m8OAIv2bc17dC05bhiP+uKeJfg/qv2G43XzUicdc0eABwJq2s=
</DataArray>
<DataArray type="Float64" Name="Potential@n1" format="binary">
AQAAAACAAABIAwAADwIAAA==eJw71hB27p/ESfsNdtcCJc6fshdu7Q38/uWmfcfPl7G7jl+3XxnRfan+5377HZeeTlm78Jb9L4HfwXkbDtqHz+6rOFt9195XdmLO0lsn7VMC+n/m/npkf8NnprkO8y17lZALn0Wm3LGfsnzHji//79uf0ROufrX1of2TW1t/xP97ZM/j4OJvAVT3sDhRUwGobovQ0a//geo8DTwfvgeqWzcp/nwyUN2zn/JRIHWuuTXGIHUym7/9B6nLWGPxDKRu77Xnl0DqZlzWBKuzn9UKVtfz/T9Y3QwtW7C6Y3yvwep670DUTV8EUffzP0TdWj2Iui2CEHVToermQ9UxgMED+41QddvJVDd3gNQRct9kqLo5UHV/oeGyAapuK1Sd2S2Iuvj5EHVz/0DUMepC1HnxQ9TlOqqD1S3gbwKrU3f/A1bXFWQNVncj7QVY3Z2TnuEgddx7p+iD1O099Ow3SN2ktYZPQOqetP0Fp4NXeQ+UTIHqPrxSOScNVBfB+rnkN1Dd+1VLlr0FqnvDt35RAlCd3VTBWwn/b9qveXVZ61XfHfsfa+09t/+6b28TnncgffND+/3zefVYfwPVrY1uM3C/ar/jupt58far9hIrMlLdGG7Ysz4Kj9D0vGUftVbm2pKZ1+wNvjVrGc3dab+6MLe6ZOlOexsv3fLry3fa73qavaNo0U77WTNBYKc9AEIyvAs=
</DataArray>
<DataArray type="Float64" Name="PotentialEdgeFlux" format="binary">
AQAAAACAAABIAwAA+wEAAA==eJxTqghg2BkncCD2GPcCDXPBA1pr1L+X61gdmPyphGdFs+2BiUt+32tuv7jf3klaWLvX9sDntfMZFH4c2v+Ea5nukum2Bxr+Fa+a//rsfvP3vzxaZSwPtN6fuvgGi9mB4/ZPztyNtD3wnte05RKQXr/hOfcyIK37PaNWjdnswAmxq8ufMJodSDz37dXNcNsDuZe3vgHRupGvb4PolrNxMY+B8o3iCSqPgPTuvTz6N4DiHd8EwPTsCyxgOorNVhkkv1lYTglEs8rX6ILEw5Uh9FEJCL2XRxYs78YuA6b1N1eBxQ2htA6UTmKDyOeyQugHGyHiT6D0CyidA5XPhtJ3oeIPofRzKJ2Npu4xmjy91KG7H11dFgF/ZELll7NA1W2AiF+F0jD+F2aIfLWRNJhun1QJFnfvgtAPeyH0wQQpsPyWcGNFEC36yFYHJL5b1xRM66+1BNMq0X4KIPk5Gv9lHwJpYz2HM9eA4ufPnjkCon2C14H5H8t6tB8A5ZPuHRddw2B2IFDP0ccszPbAHZmd5aZA2jdP5Lg3kE417xK98N/0APudpJc1rSYHnsaEKvqYWB/42Pcl884DqwPny1qrwvqsDri/dA2VdjE84H1racGexQIOly8YfdVj5HWQTJ35Tv+/gIP5wofau3uEHVa8N5Daf0PEAQDPx4XN
</DataArray>
<DataArray type="Float64" Name="PotentialEdgeFlux:Potential@n0" format="binary">
AQAAAACAAABIAwAARwAAAA==eJxbuwoIoroc5jR8fLsSSHeHWRiu/FXlwN6vWiZ9vNFhBlScFQcfpg6mD10/Kxo9qm5U3VBSB5OH5Y8ZaPRaaP4BAMseVvY=
</DataArray>
<DataArray type="Float64" Name="PotentialEdgeFlux:Potential@n1" format="binary">
AQAAAACAAABIAwAARwAAAA==eJxbuwoIoroOzGn4+HYlkO4OszBc+avqAHu/apn08cYDM6DirDj4MHUwfej6WdHoUXWj6oaSOpg8LH/MQKPXQvMPAFSoi3Y=
</DataArray>
<DataArray type="Float64" Name="edge_index" format="binary">
AQAAAACAAABIAwAATQEAAA==eJw9kj1Lw1AUhos4OnQRRBwUXHSQKIrSQS+iFIvF2Bqtrdqkjf1I2zSLIP4KF0GcOuviIoiTP6GLIE6dnboI4iTxffAuD/fcJ+eevEkiEa/Bxh8SI0Ycg1Nwxjzcx2uO/YJx4vW2xH4ZrsLF/728lOisq/5qxIFR389Nzrc43xZNWnTT8oId+mU438XP0i9Lvz3mtXl+X5zOiVZOfVby+HnVewf4jhg58i4O5c0fcQ/sFcTHgrynY+Yscl8JHw5L8r5OmO+U+87wy8xX1vmky/2u6n1oeeKaJ+/FkzdeYW7Yh+8VecUqc1ZVT/r48NKX9+PzPc55P5isiRM1eXc13oe6XceHz3V5qYa8mwY5QLspFpryPpp8l0D1aziE34G8qxb/QYs82vjwtk1+HfLrkAe0QvILyS8kvy55wH6XudmPRuIsNNCOzC8uV9BP
</DataArray>
<DataArray type="Float64" Name="unitx" format="binary">
AQAAAACAAABIAwAAUwAAAA==eJxjYACBB/ZWP3c3bfl/337un1jHW/+f24eCwVV7hoaNjIH3P9nh4oeGTg8/qPnTDqYPRqsvu8SoHPoUgx5VN6puKKmD8WH5A51mgOYfAJaLo00=
</DataArray>
<DataArray type="Float64" Name="unity" format="binary">
AQAAAACAAABIAwAAUgAAAA==eJxjYACBB/ZJSXn/bp67b3/0yJ0/m+eetw8Fg6v2586dYJgs8QAnX/1STvjdaVfh+mB08w3b4LPCVzHoUXWj6oaSOhgflj/QaQZo/gEA6tzbOg==
</DataArray>
</PointData>
<CellData>
<DataArray type="Float64" Name="ElementEdgeCouple" format="binary">
AQAAAACAAAAABQAAGwAAAA==eJz7K72w5960rfZ/R+lRepQepUcYDQDYcOw/
</DataArray>
<DataArray type="Float64" Name="ElementNodeVolume" format="binary">
AQAAAACAAAAABQAAJwAAAA==eJz7tfLjJd8kA/tfJNIMq7DTxOojV92o/lH9o/pH9VNLPwCPBqu3
</DataArray>
</CellData>
</Piece>
</UnstructuredGrid>
</VTKFile>

